<svg viewBox="0 0 888 337" xmlns="http://www.w3.org/2000/svg" fill-rule="evenodd" clip-rule="evenodd" stroke-linejoin="round" stroke-miterlimit="1.41421"><path fill="none" d="M0 0h888v337H0z"/><path d="M98.969 211.279L77.627 199.98c-1.883 4.604-7.324 20.506-25.318 20.506-13.182 0-21.76-8.998-24.899-21.133-.628-2.093-1.465-6.068-1.465-11.508 0-3.557 0-15.275 7.742-24.272 4.813-5.649 10.671-8.16 17.994-8.16 9.625 0 14.647 4.185 17.576 7.114 1.465 1.465 4.604 5.022 6.277 10.671l22.389-10.462c-6.905-16.111-19.459-23.434-25.527-25.945-6.068-2.511-12.764-3.766-19.459-3.766-23.435 0-36.617 13.6-41.638 20.296C3.557 163.364 0 175.709 0 188.472c0 8.788 2.092 37.872 29.921 50.636 9.415 4.184 17.994 4.812 21.76 4.812 15.693 0 31.177-7.114 40.592-19.877 2.93-3.976 5.022-8.37 6.696-12.764zm114.034 6.068l-21.342-12.345c-1.465 2.302-2.72 3.976-3.557 4.813-3.348 3.557-10.881 9.624-23.853 9.624-12.973 0-19.25-5.649-22.807-10.043-5.231-6.277-6.277-12.763-6.696-15.902h77.418c-.628-20.296-5.44-33.059-10.253-40.383-5.44-7.951-17.785-20.086-41.219-20.086-30.34 0-43.312 19.249-47.915 29.711-3.348 7.951-4.604 16.321-4.604 25.109 0 16.32 4.394 30.757 16.321 42.056 14.228 13.182 30.758 14.019 37.453 14.019 21.551 0 35.57-10.252 41.429-15.693 5.022-4.603 7.951-8.578 9.625-10.88zm169.9 0l-21.342-12.345c-1.465 2.302-2.72 3.976-3.557 4.813-3.348 3.557-10.881 9.624-23.853 9.624-12.973 0-19.25-5.649-22.807-10.043-5.231-6.277-6.277-12.763-6.696-15.902h77.418c-.628-20.296-5.44-33.059-10.253-40.383-5.44-7.951-17.785-20.086-41.219-20.086-30.34 0-43.312 19.249-47.915 29.711-3.348 7.951-4.604 16.321-4.604 25.109 0 16.32 4.394 30.757 16.321 42.056 14.228 13.182 30.758 14.019 37.453 14.019 21.552 0 35.57-10.252 41.429-15.693 5.022-4.603 7.951-8.578 9.625-10.88zM424.75 93.061l.209 51.89c1.047-1.046 2.302-2.092 3.348-2.929 10.462-7.951 21.97-8.997 26.573-8.997 6.277 0 19.041 1.674 30.34 13.182 6.277 6.486 15.692 19.668 15.692 41.638 0 19.668-7.951 39.964-25.736 50.007-9.206 5.231-17.785 6.068-21.76 6.068-5.441 0-14.228-1.046-24.063-9.416-1.673-1.464-3.138-2.929-4.603-4.603v10.881h-24.899V93.061h24.899zm262.383 147.721c-4.185-6.696-4.603-8.998-4.603-16.949v-55.657c0-5.858 0-13.181-2.72-18.622-.837-1.673-3.139-5.23-7.533-8.369-6.486-4.603-16.53-8.16-33.687-8.16-18.204 0-28.038 4.184-34.524 9.625-10.253 8.369-11.09 19.459-11.299 24.062l25.527 1.464c0-1.464-.209-5.649 2.72-9.206 2.72-3.557 8.788-6.486 18.413-6.486 9.206 0 14.437 3.138 16.53 7.114 1.255 2.511 1.464 5.858 1.464 8.578-7.741 2.721-13.391 3.976-28.874 7.115-9.625 1.883-17.785 3.138-26.364 8.997-12.764 8.578-14.228 20.296-14.228 26.154-.209 8.37 2.929 14.019 4.603 16.739 9.625 15.484 28.456 16.111 33.478 16.111 7.742 0 14.228-1.673 21.133-4.812 2.092-.837 5.649-2.511 9.625-5.859l.627 8.161h29.712zM259.872 93.061v147.721h-25.527V93.061h25.527zm317.412 40.801v25.736c-5.231 0-25.318 0-31.386 19.25-1.883 5.858-1.883 11.089-1.883 17.157v44.777h-24.271V136.163h24.271v14.856c1.674-3.138 3.766-6.277 6.277-8.579 8.349-8.139 21.902-8.576 24.899-8.578h2.093zm80.137 66.328c0 3.347.21 6.277-1.464 9.625-2.302 4.812-10.462 11.926-24.272 11.926-12.554 0-17.157-6.068-17.157-12.345 0-4.603 2.511-8.16 6.068-10.462 5.231-3.138 11.298-3.348 16.948-4.394 10.252-1.674 15.693-3.766 19.877-5.858v11.508zm-182.245-12.764c0 2.302-.627 13.81-6.068 22.179-5.858 9.207-15.065 10.462-19.04 10.462-7.533 0-12.764-3.557-14.856-5.022-8.788-6.695-10.671-18.203-10.671-28.456 0-3.347-.209-15.274 8.16-23.853 4.394-4.603 9.834-6.904 16.321-6.904 8.16 0 15.902 3.975 20.505 10.671 5.649 7.951 5.858 18.203 5.649 20.923zm-290.629-12.345c-.018-.141-.649-5.071-2.093-8.578-2.301-5.022-7.741-13.392-21.342-13.392-5.44 0-8.369 1.047-10.462 1.884-11.717 4.812-14.437 16.529-15.065 20.086h48.962zm169.9 0c-.018-.141-.649-5.071-2.093-8.578-2.301-5.022-7.741-13.392-21.342-13.392-5.44 0-8.369 1.047-10.462 1.884-11.717 4.812-14.437 16.529-15.065 20.086h48.962z" fill="#2f2d43"/><path d="M303.41 278.873c5.196 0 9.415 4.219 9.415 9.416s-4.219 9.416-9.415 9.416c-5.197 0-9.416-4.219-9.416-9.416s4.219-9.416 9.416-9.416zM880.677 107.88c4.042 0 7.323 3.281 7.323 7.323s-3.281 7.323-7.323 7.323-7.324-3.281-7.324-7.323 3.282-7.323 7.324-7.323z" fill="#fbb9b5"/><path d="M166.784 290.229c-.087-.939.374-1.844 1.184-2.326.81-.482 1.825-.455 2.609.069l12.148 8.121 13.423-5.773c.866-.372 1.869-.214 2.578.408.709.621.997 1.595.741 2.502l-3.969 14.063 9.638 10.983c.622.708.781 1.711.409 2.577-.372.866-1.209 1.442-2.151 1.478l-14.601.571-7.467 12.56c-.482.811-1.386 1.272-2.325 1.186-.939-.086-1.744-.705-2.07-1.589l-5.055-13.71-14.253-3.22c-.92-.208-1.638-.926-1.846-1.845-.208-.92.131-1.877.871-2.46l11.478-9.044-1.342-14.551zM390.739 39.457c5.197 0 9.416 4.219 9.416 9.416 0 5.196-4.219 9.415-9.416 9.415-5.196 0-9.415-4.219-9.415-9.415 0-5.197 4.219-9.416 9.415-9.416z" fill="#ffd952"/><path d="M439.363 263.976l11.3 7.321s-10.332 3.42-9.894 9.331c.937 12.635-5.475 13.316-8.494 18.574-3.61 6.288-2.358 12.33-2.358 12.33l-14.199-4.323c1.993-10.894 9.165-12.165 13.157-18.233 2.212-3.364-.029-8.979.986-13.324 1.929-8.254 9.502-11.676 9.502-11.676zM828.581 75.025c-.065-.704.28-1.383.888-1.744.608-.362 1.369-.342 1.957.051l9.111 6.091 10.067-4.33c.65-.279 1.402-.16 1.934.306.531.466.748 1.196.556 1.877l-2.977 10.547 7.228 8.237c.467.531.586 1.284.307 1.933-.279.65-.907 1.081-1.613 1.109l-10.951.428-5.6 9.42c-.362.608-1.04.954-1.744.889-.704-.065-1.308-.528-1.553-1.192L832.4 98.365l-10.69-2.415c-.689-.156-1.228-.695-1.384-1.384-.156-.69.098-1.408.653-1.845l8.608-6.783-1.006-10.913z" fill="#576ddb"/><path d="M565.706 277.699l17.47 10.99-23.682 13.38 6.212-24.37zm51.568-209.292c7.506 0 13.6 6.095 13.6 13.601 0 7.506-6.094 13.6-13.6 13.6-7.507 0-13.601-6.094-13.601-13.6 0-7.506 6.094-13.601 13.601-13.601z" fill="#fb517b"/><path d="M711.691 231.868c8.717-8.724 8.737-15.415 10.061-21.309 2.749.765 5.381 3.354 8.484 3.941-3.073 10.44-8.638 18.251-14.929 25.298 1.008 2.897 1.58 5.621 1.59 7.91.023 5.28-.857 18.02-13.069 30.724.354 6.07-.995 12.529-4.607 18.182-14.145 22.142-33.446 34.382-33.446 34.382-1.409-4.468-6.749-8.185-12.25-7.887 20.856-10.186 37.191-29.448 37.498-38.648 0 0-14.105 5.648-28.644 2.105-13.446-3.277-18.263-19.826-12.312-28.149 8.903-12.452 33.712-10.519 46.528 2.329 1.66 1.663 3.09 3.714 4.232 6.031 3.386-4.14 9.269-13.05 5.792-21.674-6.801 1.977-35.866 6.406-38.271-14.602-1.562-13.645 15.223-20.879 26.608-16.012 6.272 2.682 12.52 9.849 16.735 17.379zm-20.539 41.266s-15.078 5.901-24.609.82c-6.054-3.228-4.059-14.663 7.752-12.933 5.315.778 12.378 3.993 16.857 12.113zm13.058-37.258s-8.907 2.978-16.449.769c-6.606-1.934-4.778-7.71-2.675-9.499 8.112-6.901 16.789 2.367 19.124 8.73zM112.772 63.256l41.409 7.028-35.009 23.764-6.4-30.792z" fill="#49e994"/><path d="M792.778 275.859c3.465 0 6.278 2.813 6.278 6.277s-2.813 6.277-6.278 6.277c-3.464 0-6.277-2.813-6.277-6.277s2.813-6.277 6.277-6.277zM506.536 68.32l-15.996 6.594 8.567 20.781 13.319-6.347-5.89-21.028z" fill="#fea072"/><path d="M34.377 279.884l7.373-21.633 17.802 12.881-2.828 18.525-22.347-9.773zM278.047 3.746L298.018 0c-4.818 8.25-3.477 20.328 8.184 27.504 18.171 11.182 8.592 24.76 14.104 33.355 4.39 6.846 5.989 7.8 17.429 10.493l-4.8 15.718s-18.032-.929-25.645-11.534c-8.735-12.169-2.59-19.182-6.437-27.393-4.037-8.619-14.517-13.133-17.139-15.678-12.516-12.149-5.667-28.719-5.667-28.719z" fill="#b96ce0"/><path d="M877.538 217.347l-21.342-12.345c-1.465 2.302-2.72 3.976-3.557 4.813-3.348 3.557-10.88 9.624-23.853 9.624s-19.25-5.649-22.807-10.043c-5.231-6.277-6.277-12.763-6.695-15.902h77.417c-.627-20.296-5.44-33.059-10.252-40.383-5.441-7.951-17.785-20.086-41.22-20.086-30.339 0-43.312 19.249-47.915 29.711-3.348 7.951-4.603 16.321-4.603 25.109 0 16.32 4.394 30.757 16.32 42.056 14.228 13.182 30.758 14.019 37.453 14.019 21.552 0 35.571-10.252 41.429-15.693 5.022-4.603 7.951-8.578 9.625-10.88zM739.233 98.919v37.244h22.388v17.785h-22.388v47.497c0 4.185-.628 12.136 2.511 15.484 2.929 3.347 8.997 3.138 9.625 3.138 3.557 0 7.114-.418 10.252-1.255v21.133c-3.348.418-9.416 1.674-17.994 1.674-13.81 0-20.924-3.348-25.109-8.37-2.092-2.511-2.929-5.022-3.138-6.068-1.046-3.348-1.256-10.671-1.256-19.877v-53.356H698.85v-17.785h15.274V98.919h25.109zm109.849 76.162c-.043-.333-.677-5.14-2.092-8.578-2.302-5.022-7.742-13.392-21.342-13.392-5.441 0-8.37 1.047-10.462 1.884-11.718 4.812-14.438 16.529-15.065 20.086h48.961z" fill="#2f2d43"/></svg>